<svg width="100" height="38" viewBox="0 0 100 38" fill="none" xmlns="http://www.w3.org/2000/svg">
<g clip-path="url(#clip0_3249_1871)">
<path d="M64.8672 4.44878C64.8672 2.35902 66.6087 0.666676 68.6493 0.666676C70.7391 0.666676 72.4314 2.35902 72.4314 4.44878C72.4314 6.53854 70.7391 8.23089 68.6493 8.23089C66.6087 8.23089 64.8672 6.53854 64.8672 4.44878Z" fill="#E87C7C"/>
<path d="M71.8321 11.7639H66.6181C66.0108 11.7639 65.5137 12.261 65.5137 12.8683V35.7991H70.7277C71.3349 35.7991 71.8321 35.302 71.8321 34.6947V11.7639Z" fill="white"/>
<path d="M59.2422 2.6081H54.0282C53.421 2.6081 52.9238 3.10524 52.9238 3.71401V35.7987H58.1378C58.7451 35.7987 59.2422 35.3015 59.2422 34.6942V2.6081Z" fill="white"/>
<path d="M30.3826 21.5173C30.6818 19.1284 32.3727 16.1932 36.3051 16.1932C40.4846 16.1932 42.0772 19.2281 42.2261 21.5173H30.3826ZM36.3051 11.1667C28.9894 11.1667 23.8633 16.79 23.8633 23.7559C23.8633 31.469 29.3869 36.3957 36.7025 36.3957C40.434 36.3957 44.2161 35.2511 46.6051 33.0616L44.5317 30.0252C44.5317 30.0252 44.5287 30.0237 44.5272 30.0237C44.3158 29.7141 43.9616 29.5117 43.5597 29.5117C43.3305 29.5117 43.1147 29.5816 42.9316 29.7007C42.9286 29.7022 42.9242 29.7037 42.9212 29.7052C41.3702 30.759 39.2492 31.3707 37.3991 31.3707C33.3178 31.3707 30.8798 28.8315 30.4823 25.7965H47.1751L47.1826 25.7891C47.8256 25.7861 48.3465 25.2637 48.3465 24.6192V24.4034C48.3465 16.5415 43.4704 11.1667 36.3051 11.1667Z" fill="white"/>
<path d="M11.8241 18.5312L6.73219 11.7648H1.1714C0.523928 11.7648 0 12.2872 0 12.9347C0 13.2101 0.0982364 13.4601 0.257499 13.6596L0.254522 13.6655L7.86935 23.7869L0.256011 33.9023L0.258987 33.9082C0.0997247 34.1062 0 34.3547 0 34.6271C0 35.2746 0.540301 35.7985 1.1714 35.7985H6.73963L11.8241 29.041L15.7789 23.7869L11.8241 18.5312Z" fill="white"/>
<path d="M23.3937 13.6661L23.3907 13.6587C23.5485 13.4592 23.6467 13.2107 23.6467 12.9353C23.6467 12.2879 23.1228 11.7639 22.4753 11.7639H16.916L13.0938 16.8439L17.0485 22.0981L23.3937 13.6661Z" fill="white"/>
<path d="M23.3907 33.9028L17.0485 25.4753L13.0938 30.7309L16.9086 35.7991H22.4753C23.1079 35.7991 23.6467 35.2751 23.6467 34.6277C23.6467 34.3538 23.547 34.1067 23.3892 33.9073L23.3907 33.9028Z" fill="white"/>
<path d="M99.7438 33.9036L92.1304 23.7867L99.7468 13.6669L99.7423 13.6594C99.9016 13.46 99.9998 13.2099 99.9998 12.9346C99.9998 12.2871 99.4759 11.7632 98.8284 11.7632H93.2691L88.1757 18.5311L83.0837 11.7632H77.523C76.8755 11.7632 76.3516 12.2871 76.3516 12.9346C76.3516 13.2099 76.4513 13.46 76.6091 13.6594L76.6061 13.6669L84.2209 23.7867L76.6076 33.9036L76.6105 33.9081C76.4513 34.1075 76.3516 34.3546 76.3516 34.6285C76.3516 35.276 76.8919 35.7999 77.523 35.7999H83.0912L88.1757 29.0424L93.2617 35.7999H98.8284C99.461 35.7999 99.9998 35.276 99.9998 34.6285C99.9998 34.3546 99.9001 34.1075 99.7408 33.9081L99.7438 33.9036Z" fill="white"/>
</g>
<defs>
<clipPath id="clip0_3249_1871">
<rect width="100" height="36.6666" fill="white" transform="translate(0 0.666676)"/>
</clipPath>
</defs>
</svg>
